# xmcd
#
# Track frame offsets:
#	150
#	14592
#	27177
#	43290
#	56755
#	68072
#	79647
#	96507
#	109387
#	120510
#	132365
#	150525
#	164977
#	182415
#
# Disc length: 2606 seconds
#
# Revision: 3
# Processed by: cddbd v1.5.2PL0 Copyright (c) Steve Scherf et al.
# Submitted via: audiograbber 1.83.01
#
DISCID=c30a2c0e
DTITLE=Various Artist - Outlaw Country (Fab 14)
DYEAR=2004
DGENRE=Country
TTITLE0=Heather Myles - Nashville's Gone Hollywood
TTITLE1=Demolition String Band - Gone So Long
TTITLE2=The Vidalias - Misery Loves Company
TTITLE3=Kristi Rose - All The Right Reasons
TTITLE4=The Beat Farmers - Texas Heat
TTITLE5=Jonathan Richman - Since She Started To Ride
TTITLE6=Dale Watson - You Win Again
TTITLE7=Wylie and The Wild West - Saddle Bum
TTITLE8=Rosie Flores - Little Bit More
TTITLE9=Del Reeves and Jim Lauderdale - Diesel, Diesel, Diesel
TTITLE10=Jimmie Dale Gilmore - Georgia Rose
TTITLE11=Ray Wylie Hubbard - If Heaven Is Not A Place To Go
TTITLE12=The Delevantes - Driving At Night
TTITLE13=Joe Ely - Fightin' For My Life
EXTD=
EXTT0=
EXTT1=
EXTT2=
EXTT3=
EXTT4=
EXTT5=
EXTT6=
EXTT7=
EXTT8=
EXTT9=
EXTT10=
EXTT11=
EXTT12=
EXTT13=
PLAYORDER=
